<svg width="248" height="136" viewBox="0 0 248 136" fill="none" xmlns="http://www.w3.org/2000/svg">
<path d="M2.74809 131.713C2.3739 132.604 2.79295 133.63 3.68407 134.004C4.57519 134.378 5.60094 133.959 5.97513 133.068L2.74809 131.713ZM244.22 46.9092C245.178 46.7783 245.848 45.8959 245.717 44.9384L243.584 29.3335C243.453 28.3759 242.571 27.7057 241.613 27.8366C240.656 27.9675 239.985 28.8499 240.116 29.8075L242.012 43.6785L228.141 45.5746C227.184 45.7055 226.514 46.5878 226.644 47.5454C226.775 48.503 227.658 49.1732 228.615 49.0423L244.22 46.9092ZM5.97513 133.068C7.01129 130.6 8.05277 128.176 9.09936 125.795L5.89516 124.387C4.84067 126.786 3.79159 129.228 2.74809 131.713L5.97513 133.068ZM15.5874 111.707C17.9063 106.905 20.2473 102.299 22.6082 97.8837L19.5217 96.2335C17.1372 100.693 14.7746 105.341 12.4356 110.185L15.5874 111.707ZM30.236 84.382C32.9855 79.7818 35.758 75.422 38.5502 71.2929L35.6509 69.3323C32.8205 73.5178 30.0132 77.9327 27.2317 82.5864L30.236 84.382ZM47.6308 58.75C50.9179 54.5193 54.2266 50.5859 57.5519 46.9344L54.9642 44.5778C51.5746 48.2999 48.2073 52.3034 44.867 56.6026L47.6308 58.75ZM68.4102 36.0412C72.3822 32.4203 76.37 29.171 80.3652 26.2678L78.3077 23.4364C74.2037 26.4187 70.1159 29.7502 66.0523 33.4546L68.4102 36.0412ZM93.3026 18.0525C97.9523 15.5115 102.603 13.3991 107.241 11.6758L106.022 8.39492C101.224 10.1776 96.4198 12.3604 91.6242 14.9812L93.3026 18.0525ZM121.968 7.45515C127.062 6.4135 132.131 5.79679 137.159 5.55413L136.99 2.0582C131.789 2.30919 126.542 2.94733 121.267 4.02612L121.968 7.45515ZM152.484 5.93302C157.605 6.42266 162.667 7.26022 167.65 8.38945L168.423 4.976C163.306 3.81634 158.097 2.95374 152.817 2.44891L152.484 5.93302ZM182.453 12.6334C187.34 14.3208 192.123 16.2504 196.785 18.3623L198.229 15.1742C193.478 13.0218 188.594 11.0511 183.596 9.3251L182.453 12.6334ZM210.601 25.3049C215.201 27.8397 219.643 30.5061 223.902 33.2344L225.79 30.2871C221.473 27.5217 216.965 24.8153 212.29 22.2395L210.601 25.3049ZM236.706 41.9616C238.844 43.5053 240.918 45.0451 242.925 46.569L245.042 43.7817C243.014 42.242 240.917 40.6853 238.755 39.1239L236.706 41.9616ZM1.13458 131.035C0.386186 132.818 1.22429 134.869 3.00653 135.618C4.78878 136.366 6.84026 135.528 7.58865 133.746L1.13458 131.035ZM244.457 48.6431C246.372 48.3813 247.713 46.6165 247.451 44.7013L243.185 13.4916C242.923 11.5764 241.158 10.236 239.243 10.4978C237.328 10.7596 235.988 12.5244 236.249 14.4396L240.041 42.1816L212.299 45.9737C210.384 46.2355 209.044 48.0003 209.306 49.9155C209.568 51.8307 211.332 53.171 213.247 52.9093L244.457 48.6431ZM7.58865 133.746C8.62115 131.287 9.65882 128.871 10.7015 126.499L4.29307 123.683C3.23462 126.091 2.18173 128.542 1.13458 131.035L7.58865 133.746ZM17.1633 112.468C19.4722 107.687 21.8023 103.102 24.1514 98.7089L17.9784 95.4083C15.5822 99.8899 13.2087 104.56 10.8598 109.424L17.1633 112.468ZM31.7382 85.2798C34.4717 80.7063 37.2267 76.3741 39.9999 72.2732L34.2012 68.352C31.3518 72.5657 28.527 77.0082 25.7296 81.6886L31.7382 85.2798ZM49.0127 59.8237C52.2731 55.6273 55.5526 51.7289 58.8458 48.1127L53.6703 43.3995C50.2486 47.1568 46.852 51.1954 43.4851 55.5289L49.0127 59.8237ZM69.5892 37.3345C73.5154 33.7553 77.4531 30.5472 81.3939 27.6835L77.279 22.0207C73.1205 25.0425 68.9828 28.4152 64.8734 32.1613L69.5892 37.3345ZM94.1418 19.5881C98.7185 17.0871 103.292 15.0098 107.851 13.3163L105.413 6.75445C100.534 8.5669 95.6536 10.7849 90.7849 13.4455L94.1418 19.5881ZM122.319 9.16967C127.322 8.14658 132.302 7.54059 137.243 7.3021L136.906 0.310234C131.619 0.565393 126.282 1.21425 120.916 2.3116L122.319 9.16967ZM152.317 7.67507C157.359 8.15712 162.347 8.98215 167.263 10.0962L168.81 3.26927C163.626 2.0944 158.343 1.21928 152.984 0.706848L152.317 7.67507ZM181.882 14.2875C186.712 15.9557 191.446 17.8647 196.063 19.9563L198.951 13.5802C194.156 11.4075 189.221 9.4162 184.167 7.67097L181.882 14.2875ZM209.757 26.8376C214.32 29.352 218.728 31.9983 222.959 34.708L226.734 28.8134C222.387 26.0295 217.847 23.303 213.135 20.7068L209.757 26.8376ZM235.681 43.3805C237.807 44.9153 239.87 46.4467 241.866 47.9626L246.1 42.3881C244.062 40.8404 241.954 39.2753 239.779 37.705L235.681 43.3805Z" fill="url(#paint0_linear_32_12)"/>
<defs>
<linearGradient id="paint0_linear_32_12" x1="-72.0024" y1="93.2534" x2="323.646" y2="12.3362" gradientUnits="userSpaceOnUse">
<stop stop-color="#1C32FF"/>
<stop offset="0.510417" stop-color="#FE007A"/>
<stop offset="1" stop-color="#FF4242"/>
</linearGradient>
</defs>
</svg>
