<svg width="291" height="160" viewBox="0 0 291 160" fill="none" xmlns="http://www.w3.org/2000/svg">
<path d="M1.84207 3.63357C1.84206 2.66707 2.62555 1.88356 3.59205 1.88354C4.55855 1.88353 5.34206 2.66702 5.34208 3.63351L1.84207 3.63357ZM279.62 91.5075C280.564 91.2979 281.498 91.8927 281.708 92.8362L285.125 108.211C285.334 109.155 284.74 110.089 283.796 110.299C282.853 110.509 281.918 109.914 281.708 108.97L278.671 95.3038L265.005 98.3408C264.061 98.5505 263.126 97.9556 262.917 97.0121C262.707 96.0686 263.302 95.1338 264.245 94.9242L279.62 91.5075ZM5.34208 3.63351C5.34208 3.95558 5.46822 4.64738 5.8651 5.79684C6.24611 6.90032 6.82643 8.28657 7.60899 9.93576L4.44692 11.4362C3.63189 9.71859 2.99428 8.20632 2.55675 6.93914C2.1351 5.71793 1.84209 4.56691 1.84207 3.63357L5.34208 3.63351ZM14.9244 23.1202C17.2912 26.9888 20.0592 31.267 23.1931 35.8464L20.3047 37.8231C17.1402 33.1988 14.3394 28.8706 11.9388 24.9468L14.9244 23.1202ZM32.0735 48.2689C34.9695 52.157 38.0656 56.1684 41.3452 60.2525L38.6161 62.4439C35.3095 58.3261 32.1874 54.2811 29.2666 50.3596L32.0735 48.2689ZM51.0721 71.9278C54.3281 75.6947 57.72 79.4815 61.2354 83.2511L58.6757 85.6382C55.1289 81.8348 51.7076 78.0152 48.4242 74.2166L51.0721 71.9278ZM71.8251 94.1609C75.4013 97.6964 79.0787 101.183 82.8465 104.588L80.4997 107.185C76.6908 103.742 72.9754 100.22 69.3644 96.6498L71.8251 94.1609ZM94.3513 114.481C98.2812 117.687 102.29 120.78 106.366 123.727L104.315 126.564C100.18 123.573 96.1175 120.439 92.1388 117.193L94.3513 114.481ZM118.919 132.186C123.236 134.879 127.612 137.384 132.035 139.668L130.429 142.778C125.915 140.448 121.457 137.894 117.067 135.155L118.919 132.186ZM145.754 145.948C150.482 147.83 155.246 149.429 160.034 150.707L159.132 154.088C154.2 152.773 149.305 151.129 144.459 149.2L145.754 145.948ZM174.748 153.573C179.721 154.174 184.705 154.391 189.686 154.184L189.832 157.681C184.651 157.897 179.478 157.67 174.328 157.048L174.748 153.573ZM204.469 152.28C209.224 151.237 213.97 149.766 218.695 147.828L220.024 151.066C215.111 153.081 210.171 154.613 205.219 155.699L204.469 152.28ZM232.03 141.046C236.13 138.541 240.21 135.645 244.259 132.333L246.475 135.042C242.308 138.451 238.098 141.44 233.855 144.032L232.03 141.046ZM255.317 122.143C258.662 118.701 261.979 114.948 265.264 110.867L267.991 113.062C264.641 117.223 261.252 121.058 257.827 124.582L255.317 122.143ZM274.231 98.7771C275.669 96.6789 277.1 94.5125 278.523 92.2763L281.476 94.1554C280.032 96.4244 278.579 98.6243 277.117 100.756L274.231 98.7771ZM0.0920747 3.63359C0.0920469 1.7006 1.65903 0.133573 3.59202 0.133546C5.52502 0.133519 7.09205 1.7005 7.09207 3.63349L0.0920747 3.63359ZM279.241 89.7992C281.128 89.3799 282.997 90.5696 283.417 92.4566L290.25 123.206C290.669 125.093 289.479 126.963 287.592 127.382C285.705 127.802 283.836 126.612 283.416 124.725L277.342 97.3918L250.009 103.466C248.122 103.885 246.253 102.695 245.833 100.808C245.414 98.9214 246.604 97.0518 248.491 96.6325L279.241 89.7992ZM7.09207 3.63349C7.09207 3.59177 7.08964 3.70111 7.16149 4.01816C7.22911 4.31659 7.3433 4.71605 7.51927 5.22569C7.87202 6.24732 8.4237 7.57057 9.19002 9.18554L2.86588 12.1864C2.03462 10.4346 1.36837 8.85932 0.902578 7.51029C0.468538 6.25321 0.0920933 4.87256 0.0920747 3.63359L7.09207 3.63349ZM16.4172 22.2069C18.7671 26.0479 21.5188 30.3011 24.6373 34.8581L18.8604 38.8114C15.6806 34.1648 12.8635 29.8114 10.446 25.8601L16.4172 22.2069ZM33.477 47.2236C36.3605 51.095 39.4437 55.0896 42.7097 59.1568L37.2516 63.5397C33.9315 59.405 30.7964 55.3432 27.8631 51.405L33.477 47.2236ZM52.3961 70.7834C55.6383 74.5344 59.0155 78.3048 62.5152 82.0576L57.3959 86.8317C53.8333 83.0115 50.3974 79.1754 47.1003 75.361L52.3961 70.7834ZM73.0555 92.9164C76.6142 96.4347 80.2726 99.9033 84.02 103.29L79.3263 108.483C75.4968 105.022 71.7625 101.482 68.1341 97.8943L73.0555 92.9164ZM95.4576 113.125C99.3631 116.311 103.345 119.383 107.391 122.309L103.29 127.982C99.1249 124.97 95.0357 121.815 91.0325 118.549L95.4576 113.125ZM119.846 130.701C124.126 133.371 128.46 135.853 132.838 138.113L129.626 144.333C125.067 141.979 120.568 139.402 116.14 136.64L119.846 130.701ZM146.401 144.322C151.07 146.181 155.769 147.757 160.486 149.016L158.681 155.779C153.677 154.444 148.716 152.778 143.812 150.826L146.401 144.322ZM174.958 151.836C179.842 152.426 184.731 152.639 189.614 152.436L189.904 159.43C184.624 159.649 179.356 159.418 174.119 158.785L174.958 151.836ZM204.094 150.571C208.75 149.55 213.399 148.109 218.031 146.209L220.688 152.685C215.681 154.739 210.645 156.3 205.594 157.408L204.094 150.571ZM231.118 139.552C235.147 137.091 239.161 134.242 243.151 130.978L247.583 136.396C243.357 139.854 239.082 142.89 234.767 145.526L231.118 139.552ZM254.062 120.923C257.367 117.523 260.648 113.811 263.901 109.77L269.354 114.159C265.972 118.36 262.547 122.237 259.082 125.802L254.062 120.923ZM272.787 97.7874C274.214 95.7063 275.634 93.5566 277.047 91.3368L282.953 95.0949C281.498 97.3803 280.034 99.5969 278.561 101.746L272.787 97.7874Z" fill="url(#paint0_linear_32_6)"/>
<defs>
<linearGradient id="paint0_linear_32_6" x1="-25" y1="17.2151" x2="360.2" y2="101.112" gradientUnits="userSpaceOnUse">
<stop stop-color="#1C32FF"/>
<stop offset="0.434323" stop-color="#00D1FF"/>
<stop offset="0.834565" stop-color="#FE007A"/>
</linearGradient>
</defs>
</svg>
