<svg width="311" height="208" viewBox="0 0 311 208" fill="none" xmlns="http://www.w3.org/2000/svg">
<path d="M2.63033 180.003C2.02874 179.247 2.15429 178.146 2.91074 177.544L15.2378 167.741C15.9942 167.139 17.0952 167.265 17.6967 168.021C18.2983 168.778 18.1728 169.879 17.4163 170.48L6.45894 179.194L15.173 190.152C15.7746 190.908 15.6491 192.009 14.8926 192.611C14.1362 193.212 13.0353 193.087 12.4337 192.33L2.63033 180.003ZM306.222 2.40492C307.056 1.91537 308.128 2.19406 308.618 3.0274C309.107 3.86073 308.829 4.93314 307.995 5.42271L306.222 2.40492ZM4.19828 177.175C6.83496 177.476 9.42733 177.75 11.9765 177.999L11.6363 181.483C9.06776 181.232 6.45662 180.955 3.80172 180.653L4.19828 177.175ZM27.2194 179.218C32.5086 179.541 37.5954 179.742 42.4923 179.825L42.4328 183.325C37.4815 183.24 32.3434 183.037 27.0059 182.711L27.2194 179.218ZM57.7626 179.688C63.0646 179.493 68.1217 179.143 72.9549 178.645L73.3135 182.127C68.3994 182.633 63.2654 182.988 57.8912 183.186L57.7626 179.688ZM87.9485 176.51C93.1751 175.543 98.1144 174.378 102.802 173.029L103.77 176.392C98.9687 177.774 93.9187 178.965 88.5852 179.951L87.9485 176.51ZM117.085 168.058C121.896 166.072 126.429 163.861 130.738 161.445L132.45 164.497C128.021 166.981 123.362 169.253 118.421 171.294L117.085 168.058ZM143.491 153.278C147.6 150.306 151.526 147.126 155.331 143.758L157.65 146.379C153.77 149.814 149.754 153.067 145.543 156.113L143.491 153.278ZM166.332 133.229C169.833 129.64 173.276 125.897 176.719 122.018L179.337 124.342C175.868 128.25 172.386 132.035 168.838 135.673L166.332 133.229ZM186.755 110.407C189.994 106.586 193.27 102.677 196.642 98.677L199.318 100.933C195.956 104.921 192.667 108.845 189.424 112.67L186.755 110.407ZM206.648 86.9404C209.928 83.1522 213.318 79.3102 216.852 75.4283L219.44 77.7844C215.93 81.6404 212.559 85.46 209.294 89.2315L206.648 86.9404ZM227.42 64.187C230.933 60.5772 234.593 56.9448 238.426 53.2999L240.838 55.8364C237.04 59.4476 233.412 63.0479 229.929 66.6278L227.42 64.187ZM249.809 42.9171C253.583 39.617 257.519 36.3149 261.634 33.0181L263.822 35.7497C259.747 39.0141 255.85 42.2839 252.113 45.552L249.809 42.9171ZM273.885 23.6297C277.932 20.6638 282.141 17.708 286.526 14.7679L288.475 17.6749C284.131 20.5876 279.962 23.5154 275.954 26.4528L273.885 23.6297ZM299.516 6.43281C301.71 5.08551 303.945 3.7427 306.222 2.40492L307.995 5.42271C305.738 6.749 303.522 8.08011 301.347 9.41549L299.516 6.43281ZM1.26065 181.092C0.0574868 179.579 0.308575 177.378 1.82147 176.174L26.4756 156.568C27.9885 155.365 30.1903 155.616 31.3935 157.129C32.5966 158.641 32.3455 160.843 30.8327 162.046L8.91787 179.475L26.3461 201.389C27.5493 202.902 27.2982 205.104 25.7853 206.307C24.2724 207.51 22.0706 207.259 20.8674 205.746L1.26065 181.092ZM305.336 0.89603C307.003 -0.0830778 309.148 0.474299 310.127 2.14097C311.106 3.80765 310.548 5.95248 308.882 6.93161L305.336 0.89603ZM4.39656 175.436C7.02412 175.736 9.60711 176.01 12.1467 176.258L11.4661 183.225C8.88798 182.973 6.26745 182.695 3.60344 182.391L4.39656 175.436ZM27.3261 177.471C32.5913 177.793 37.6523 177.993 42.5221 178.075L42.403 185.074C37.4246 184.99 32.2607 184.786 26.8992 184.458L27.3261 177.471ZM57.6983 177.94C62.9642 177.746 67.9829 177.398 72.7756 176.904L73.4929 183.867C68.5383 184.378 63.3658 184.736 57.9555 184.935L57.6983 177.94ZM87.6302 174.789C92.8033 173.832 97.6872 172.68 102.318 171.347L104.254 178.074C99.3959 179.472 94.2905 180.675 88.9035 181.672L87.6302 174.789ZM116.417 166.441C121.162 164.482 125.633 162.301 129.882 159.918L133.306 166.024C128.817 168.541 124.096 170.844 119.089 172.911L116.417 166.441ZM142.466 151.86C146.523 148.925 150.404 145.781 154.171 142.448L158.81 147.689C154.892 151.158 150.832 154.448 146.568 157.531L142.466 151.86ZM165.079 132.007C168.556 128.442 171.981 124.72 175.41 120.856L180.645 125.503C177.163 129.426 173.663 133.232 170.091 136.895L165.079 132.007ZM185.42 109.275C188.658 105.456 191.927 101.555 195.304 97.5489L200.656 102.061C197.299 106.043 194.004 109.975 190.759 113.802L185.42 109.275ZM205.325 85.7949C208.612 81.9983 212.012 78.1452 215.558 74.2503L220.734 78.9625C217.236 82.8054 213.875 86.614 210.617 90.3771L205.325 85.7949ZM226.166 62.9665C229.693 59.3418 233.369 55.6934 237.22 52.0317L242.044 57.1046C238.263 60.699 234.652 64.2833 231.183 67.8482L226.166 62.9665ZM248.657 41.5996C252.45 38.2835 256.404 34.9652 260.54 31.6522L264.916 37.1155C260.862 40.3637 256.984 43.6174 253.264 46.8694L248.657 41.5996ZM272.851 22.2183C276.917 19.2379 281.146 16.2682 285.551 13.3144L289.449 19.1285C285.126 22.0275 280.977 24.9412 276.988 27.8642L272.851 22.2183ZM298.6 4.94147C300.804 3.58821 303.049 2.23956 305.336 0.89603L308.882 6.93161C306.634 8.25215 304.428 9.57739 302.263 10.9068L298.6 4.94147Z" fill="url(#paint0_linear_33_18)"/>
<defs>
<linearGradient id="paint0_linear_33_18" x1="346.913" y1="-22.2359" x2="-26.2955" y2="153.912" gradientUnits="userSpaceOnUse">
<stop stop-color="#1C32FF"/>
<stop offset="0.518242" stop-color="#FE007A"/>
<stop offset="0.938695" stop-color="#FF4242"/>
</linearGradient>
</defs>
</svg>
