<svg width="98" height="375" viewBox="0 0 98 375" fill="none" xmlns="http://www.w3.org/2000/svg">
<path d="M5.10397 2.85724C4.35406 2.24753 3.25186 2.3612 2.64215 3.11112C2.03245 3.86103 2.14611 4.96323 2.89603 5.57293L5.10397 2.85724ZM2.50838 353.3C2.00294 354.124 2.26101 355.201 3.08481 355.707L16.5094 363.943C17.3332 364.449 18.4107 364.191 18.9162 363.367C19.4216 362.543 19.1636 361.466 18.3398 360.96L6.40681 353.639L13.7283 341.706C14.2338 340.882 13.9757 339.804 13.1519 339.299C12.3281 338.793 11.2505 339.052 10.7451 339.875L2.50838 353.3ZM2.89603 5.57293C4.76158 7.08969 6.61028 8.6719 8.44091 10.3168L10.7802 7.71333C8.90819 6.0313 7.01574 4.41157 5.10397 2.85724L2.89603 5.57293ZM18.9445 20.6436C22.2327 24.1629 25.4479 27.8816 28.5821 31.7809L31.3101 29.5881C28.1245 25.625 24.8526 21.8403 21.5019 18.2541L18.9445 20.6436ZM37.4238 43.559C40.211 47.5282 42.9193 51.6394 45.5423 55.8766L48.5182 54.0344C45.8611 49.7419 43.1156 45.5743 40.2882 41.5476L37.4238 43.559ZM52.9765 68.6366C55.3233 72.9169 57.5855 77.298 59.7574 81.7659L62.9052 80.2358C60.7089 75.7176 58.4204 71.2856 56.0455 66.9539L52.9765 68.6366ZM65.9069 95.2082C67.8439 99.7141 69.6895 104.289 71.4385 108.919L74.7127 107.682C72.9454 103.004 71.0802 98.3803 69.1224 93.826L65.9069 95.2082ZM76.3571 122.862C77.8926 127.54 79.3282 132.259 80.6589 137.007L84.029 136.063C82.6845 131.265 81.2339 126.497 79.6825 121.771L76.3571 122.862ZM84.3315 151.326C85.4514 156.137 86.4604 160.963 87.3533 165.792L90.795 165.156C89.8921 160.273 88.8722 155.394 87.7404 150.533L84.3315 151.326ZM89.693 180.378C90.3586 185.285 90.8988 190.181 91.3082 195.053L94.7959 194.76C94.3814 189.827 93.8347 184.872 93.1612 179.908L89.693 180.378ZM92.145 209.797C92.288 214.763 92.2859 219.688 92.1327 224.558L95.631 224.668C95.7864 219.725 95.7885 214.73 95.6435 209.696L92.145 209.797ZM91.1861 239.277C90.6982 244.226 90.0395 249.097 89.2036 253.874L92.6512 254.477C93.503 249.61 94.1732 244.652 94.6692 239.62L91.1861 239.277ZM86.0689 268.241C84.8025 273.035 83.3337 277.705 81.6551 282.233L84.9368 283.449C86.6567 278.811 88.1592 274.032 89.4529 269.135L86.0689 268.241ZM75.8297 295.673C73.6183 300.078 71.17 304.305 68.4763 308.333L71.3857 310.279C74.1636 306.125 76.6844 301.772 78.9577 297.243L75.8297 295.673ZM59.5623 319.9C56.3437 323.528 52.8669 326.935 49.1226 330.098L51.3811 332.771C55.2564 329.498 58.8531 325.974 62.1807 322.222L59.5623 319.9ZM37.3247 338.679C33.2847 341.195 28.9954 343.475 24.4485 345.501L25.8729 348.698C30.5647 346.607 34.9962 344.252 39.1746 341.651L37.3247 338.679ZM10.7554 350.578C8.42507 351.282 6.03768 351.928 3.5924 352.513L4.4076 355.917C6.91782 355.316 9.37086 354.652 11.7674 353.928L10.7554 350.578ZM6.20795 1.4994C4.70811 0.279982 2.50372 0.507308 1.28431 2.00714C0.0648956 3.50698 0.292221 5.71137 1.79205 6.93078L6.20795 1.4994ZM1.01676 352.385C0.00587463 354.032 0.522026 356.187 2.16962 357.198L29.0188 373.672C30.6664 374.683 32.8215 374.166 33.8324 372.519C34.8433 370.871 34.3271 368.716 32.6795 367.705L8.81362 353.062L23.4566 329.196C24.4675 327.549 23.9514 325.394 22.3038 324.383C20.6562 323.372 18.5011 323.888 17.4902 325.536L1.01676 352.385ZM1.79205 6.93078C3.63451 8.42875 5.46133 9.9922 7.27129 11.6185L11.9498 6.41161C10.0571 4.71101 8.14281 3.07251 6.20795 1.4994L1.79205 6.93078ZM17.6658 21.8383C20.9227 25.3242 24.1096 29.0099 27.2181 32.8773L32.6741 28.4918C29.4629 24.4967 26.1626 20.679 22.7806 17.0594L17.6658 21.8383ZM35.9916 44.5646C38.7586 48.5052 41.4484 52.5881 44.0543 56.7977L50.0062 53.1133C47.332 48.7932 44.568 44.5973 41.7204 40.542L35.9916 44.5646ZM51.442 69.4779C53.7747 73.7326 56.0238 78.0882 58.1834 82.531L64.4791 79.4707C62.2706 74.9274 59.969 70.4699 57.58 66.1126L51.442 69.4779ZM64.2991 95.8993C66.2257 100.381 68.0616 104.931 69.8014 109.537L76.3498 107.064C74.5733 102.361 72.6984 97.7135 70.7301 93.1348L64.2991 95.8993ZM74.6944 123.408C76.2219 128.062 77.6501 132.756 78.9738 137.48L85.7141 135.591C84.3626 130.768 82.9046 125.976 81.3453 121.225L74.6944 123.408ZM82.6271 151.723C83.741 156.508 84.7445 161.308 85.6325 166.111L92.5158 164.838C91.608 159.928 90.5826 155.023 89.4448 150.136L82.6271 151.723ZM87.9589 180.613C88.6206 185.492 89.1575 190.358 89.5644 195.2L96.5398 194.614C96.1227 189.65 95.5727 184.665 94.8954 179.672L87.9589 180.613ZM90.3957 209.847C90.5378 214.779 90.5356 219.67 90.3836 224.503L97.3801 224.723C97.5367 219.744 97.5388 214.713 97.3928 209.645L90.3957 209.847ZM89.4445 239.105C88.9608 244.013 88.3078 248.841 87.4798 253.572L94.375 254.779C95.2347 249.867 95.9107 244.865 96.4107 239.792L89.4445 239.105ZM84.377 267.794C83.1242 272.537 81.6721 277.153 80.0143 281.624L86.5776 284.058C88.3182 279.363 89.8375 274.531 91.1448 269.581L84.377 267.794ZM74.2657 294.888C72.0853 299.231 69.6731 303.396 67.0216 307.361L72.8404 311.252C75.6605 307.035 78.2174 302.619 80.5217 298.029L74.2657 294.888ZM58.2531 318.738C55.089 322.306 51.6722 325.653 47.9934 328.761L52.5104 334.108C56.4511 330.78 60.1078 327.196 63.4899 323.383L58.2531 318.738ZM36.3998 337.194C32.4289 339.666 28.2108 341.909 23.7363 343.902L26.5852 350.296C31.3493 348.174 35.852 345.781 40.0995 343.136L36.3998 337.194ZM10.2494 348.903C7.95217 349.597 5.59761 350.233 3.18481 350.811L4.81519 357.619C7.35788 357.01 9.84376 356.338 12.2734 355.604L10.2494 348.903Z" fill="url(#paint0_linear_33_15)"/>
<defs>
<linearGradient id="paint0_linear_33_15" x1="75" y1="-27.7849" x2="-32.9267" y2="413.177" gradientUnits="userSpaceOnUse">
<stop offset="0.155439" stop-color="#FF4242"/>
<stop offset="0.469941" stop-color="#1CC8FF"/>
<stop offset="0.869814" stop-color="#FE007A"/>
</linearGradient>
</defs>
</svg>
