<svg width="130" height="105" viewBox="0 0 130 105" fill="none" xmlns="http://www.w3.org/2000/svg">
<path d="M111.773 73.8368C111.149 75.2633 110.457 76.6556 109.691 78.0086C106.489 83.7098 102.129 88.7248 96.8947 92.6808C90.4229 97.583 82.7481 100.765 74.7051 101.887L73.2664 102.088V99.1762L74.3024 99.0341C87.5897 97.181 99.4039 89.313 106.337 78.0135C107.383 76.3124 108.316 74.5329 109.126 72.6897L111.773 73.8368Z" fill="#0158DB"/>
<path d="M65.0662 100.323L71.204 99.4655V102.377L65.4639 103.181L65.0662 100.323Z" fill="#0158DB"/>
<path d="M111.891 46.5512H108.999C108.999 22.4717 89.3771 2.8874 65.2627 2.8874C41.1433 2.8874 21.5267 22.4766 21.5267 46.5512H18.6345C18.6345 20.8834 39.5524 0 65.2627 0C90.973 0 111.891 20.8834 111.891 46.5512Z" fill="#0158DB"/>
<path d="M113.349 43.5854H103.013V78.0086H113.349V43.5854Z" fill="#0158DB"/>
<path d="M113.349 43.5854H103.013V78.0086H113.349V43.5854Z" fill="url(#paint0_linear_18_464)"/>
<path d="M130 60.797C130 68.7336 124.952 75.4839 117.876 78.0282V43.5707C124.952 46.11 130 52.8652 130 60.797Z" fill="#F7528E"/>
<path d="M130 60.797C130 68.7336 124.952 75.4839 117.876 78.0282V43.5707C124.952 46.11 130 52.8652 130 60.797Z" fill="url(#paint1_linear_18_464)"/>
<path d="M26.9868 43.5854H16.6506V78.0086H26.9868V43.5854Z" fill="#0158DB"/>
<path d="M26.9868 43.5854H16.6506V78.0086H26.9868V43.5854Z" fill="url(#paint2_linear_18_464)"/>
<path d="M0 60.797C0 68.7336 5.04778 75.4839 12.1235 78.0282V43.5707C5.04778 46.11 0 52.8652 0 60.797Z" fill="#F7528E"/>
<path d="M0 60.797C0 68.7336 5.04778 75.4839 12.1235 78.0282V43.5707C5.04778 46.11 0 52.8652 0 60.797Z" fill="url(#paint3_linear_18_464)"/>
<path d="M71.2041 97.6809H62.3508V105H71.2041V97.6809Z" fill="#0158DB"/>
<path d="M49.8345 56.6056C52.1044 56.6056 53.9444 54.7685 53.9444 52.5024C53.9444 50.2363 52.1044 48.3993 49.8345 48.3993C47.5647 48.3993 45.7246 50.2363 45.7246 52.5024C45.7246 54.7685 47.5647 56.6056 49.8345 56.6056Z" fill="#0158DB"/>
<path d="M66.0189 56.6056C68.2887 56.6056 70.1288 54.7685 70.1288 52.5024C70.1288 50.2363 68.2887 48.3993 66.0189 48.3993C63.749 48.3993 61.9089 50.2363 61.9089 52.5024C61.9089 54.7685 63.749 56.6056 66.0189 56.6056Z" fill="#FD2B66"/>
<path d="M80.1605 56.6056C82.4303 56.6056 84.2704 54.7685 84.2704 52.5024C84.2704 50.2363 82.4303 48.3993 80.1605 48.3993C77.8906 48.3993 76.0505 50.2363 76.0505 52.5024C76.0505 54.7685 77.8906 56.6056 80.1605 56.6056Z" fill="#0158DB"/>
<defs>
<linearGradient id="paint0_linear_18_464" x1="87.0791" y1="41.0706" x2="117.937" y2="87.2073" gradientUnits="userSpaceOnUse">
<stop stop-color="#3BC3E1"/>
<stop offset="0.491416" stop-color="#1C32FF"/>
<stop offset="0.984375" stop-color="#FF6DCE"/>
</linearGradient>
<linearGradient id="paint1_linear_18_464" x1="105.738" y1="30.2858" x2="140.356" y2="42.2607" gradientUnits="userSpaceOnUse">
<stop offset="0.181437" stop-color="#FAFF01"/>
<stop offset="0.473899" stop-color="#FE007A"/>
<stop offset="1" stop-color="#FF4848"/>
</linearGradient>
<linearGradient id="paint2_linear_18_464" x1="12.4425" y1="40.0902" x2="34.6742" y2="80.0519" gradientUnits="userSpaceOnUse">
<stop stop-color="#3BC3E1"/>
<stop offset="0.39054" stop-color="#1C32FF"/>
<stop offset="0.984375" stop-color="#FF6DCE"/>
</linearGradient>
<linearGradient id="paint3_linear_18_464" x1="-7.19848" y1="28.3249" x2="28.7971" y2="50.531" gradientUnits="userSpaceOnUse">
<stop offset="0.181437" stop-color="#FAFF01"/>
<stop offset="0.644519" stop-color="#FE007A"/>
<stop offset="1" stop-color="#FF4848"/>
</linearGradient>
</defs>
</svg>
