<svg width="130" height="130" viewBox="0 0 130 130" fill="none" xmlns="http://www.w3.org/2000/svg">
<path d="M128.595 87.7559C127.876 92.6392 126.277 97.4088 124.007 101.837C123.407 102.926 122.807 104.016 122.177 105.093L120.109 108.205C119.355 109.192 118.582 110.174 117.804 111.149C116.972 112.077 116.146 113.016 115.302 113.926C114.399 114.782 113.507 115.655 112.586 116.493C111.624 117.283 110.685 118.103 109.698 118.863C108.676 119.575 107.672 120.305 106.638 120.993C105.574 121.64 104.517 122.292 103.435 122.885C99.0736 125.242 94.3613 126.918 89.5303 127.714C94.1355 126.05 98.5269 123.98 102.603 121.43C103.114 121.119 103.602 120.76 104.101 120.425L105.598 119.426C106.567 118.719 107.506 117.971 108.462 117.247L111.202 114.919C112.075 114.099 112.919 113.25 113.781 112.418C114.607 111.55 115.409 110.658 116.223 109.779L118.493 106.984L120.608 104.063C121.244 103.046 121.892 102.029 122.552 101.017C125.029 96.8762 127.02 92.4237 128.595 87.7559Z" fill="#F7528E"/>
<path d="M128.595 87.7559C127.876 92.6392 126.277 97.4088 124.007 101.837C123.407 102.926 122.807 104.016 122.177 105.093L120.109 108.205C119.355 109.192 118.582 110.174 117.804 111.149C116.972 112.077 116.146 113.016 115.302 113.926C114.399 114.782 113.507 115.655 112.586 116.493C111.624 117.283 110.685 118.103 109.698 118.863C108.676 119.575 107.672 120.305 106.638 120.993C105.574 121.64 104.517 122.292 103.435 122.885C99.0736 125.242 94.3613 126.918 89.5303 127.714C94.1355 126.05 98.5269 123.98 102.603 121.43C103.114 121.119 103.602 120.76 104.101 120.425L105.598 119.426C106.567 118.719 107.506 117.971 108.462 117.247L111.202 114.919C112.075 114.099 112.919 113.25 113.781 112.418C114.607 111.55 115.409 110.658 116.223 109.779L118.493 106.984L120.608 104.063C121.244 103.046 121.892 102.029 122.552 101.017C125.029 96.8762 127.02 92.4237 128.595 87.7559Z" fill="url(#paint0_linear_18_196)"/>
<path d="M79.1674 120.191L77.9849 115.554C96.5129 110.748 110.828 96.1101 115.338 77.3489L117.638 77.9114H120.026V78.2046L119.961 78.4799C115.029 98.9587 99.4008 114.943 79.1674 120.191Z" fill="#F7528E"/>
<path d="M79.1674 120.191L77.9849 115.554C96.5129 110.748 110.828 96.1101 115.338 77.3489L117.638 77.9114H120.026V78.2046L119.961 78.4799C115.029 98.9587 99.4008 114.943 79.1674 120.191Z" fill="url(#paint1_linear_18_196)"/>
<path d="M53.6154 120.856C32.247 116.451 15.1452 99.8145 10.0408 78.4799L14.6638 77.3608C19.3344 96.9 34.9983 112.136 54.5721 116.17L53.6154 120.856Z" fill="#F7528E"/>
<path d="M53.6154 120.856C32.247 116.451 15.1452 99.8145 10.0408 78.4799L14.6638 77.3608C19.3344 96.9 34.9983 112.136 54.5721 116.17L53.6154 120.856Z" fill="url(#paint2_linear_18_196)"/>
<path d="M115.487 53.5009C111.197 34.4105 96.8281 19.4913 77.9792 14.5721L79.1737 9.94012C99.7517 15.3142 115.445 31.5978 120.128 52.4476L115.487 53.5009Z" fill="#F7528E"/>
<path d="M115.487 53.5009C111.197 34.4105 96.8281 19.4913 77.9792 14.5721L79.1737 9.94012C99.7517 15.3142 115.445 31.5978 120.128 52.4476L115.487 53.5009Z" fill="url(#paint3_linear_18_196)"/>
<path d="M14.4854 53.5009L12.1798 52.9743H9.79102V52.699L9.85042 52.4357C14.7587 30.6823 31.9379 13.7463 53.6153 9.2879L54.566 13.9797C34.7129 18.0671 18.9837 33.5787 14.4854 53.5009Z" fill="#F7528E"/>
<path d="M14.4854 53.5009L12.1798 52.9743H9.79102V52.699L9.85042 52.4357C14.7587 30.6823 31.9379 13.7463 53.6153 9.2879L54.566 13.9797C34.7129 18.0671 18.9837 33.5787 14.4854 53.5009Z" fill="url(#paint4_linear_18_196)"/>
<path d="M2.13159 41.3285C2.84466 36.146 4.52633 31.0772 6.95672 26.3974C7.59848 25.2484 8.24028 24.0934 8.9177 22.9563C9.66048 21.8672 10.3854 20.76 11.1401 19.6768C11.9542 18.6415 12.7801 17.6062 13.6239 16.5889C14.5272 15.6254 15.4066 14.6379 16.3277 13.6924C17.3022 12.8067 18.2648 11.8911 19.2631 11.0293C20.303 10.2214 21.3132 9.36566 22.3828 8.59367C23.4881 7.86955 24.5637 7.11551 25.6868 6.4273C26.8336 5.78098 27.9686 5.1167 29.1452 4.53023C33.8455 2.18432 38.9143 0.610413 44.0663 0C39.0985 1.49013 34.3447 3.465 29.9296 6.01437C29.371 6.31958 28.8481 6.69061 28.3073 7.01975L26.6851 8.02514C25.6274 8.7313 24.6171 9.5033 23.5832 10.2394C22.5849 11.0233 21.6104 11.8372 20.6239 12.6332C19.6732 13.477 18.77 14.3686 17.8371 15.2304C16.9398 16.1281 16.0841 17.0676 15.2046 17.9833C14.3727 18.9467 13.5883 19.9461 12.7623 20.9156L10.4983 23.9916C9.81493 25.0688 9.13158 26.146 8.43039 27.2172C5.78013 31.6098 3.71224 36.3555 2.13159 41.3285Z" fill="#F7528E"/>
<path d="M2.13159 41.3285C2.84466 36.146 4.52633 31.0772 6.95672 26.3974C7.59848 25.2484 8.24028 24.0934 8.9177 22.9563C9.66048 21.8672 10.3854 20.76 11.1401 19.6768C11.9542 18.6415 12.7801 17.6062 13.6239 16.5889C14.5272 15.6254 15.4066 14.6379 16.3277 13.6924C17.3022 12.8067 18.2648 11.8911 19.2631 11.0293C20.303 10.2214 21.3132 9.36566 22.3828 8.59367C23.4881 7.86955 24.5637 7.11551 25.6868 6.4273C26.8336 5.78098 27.9686 5.1167 29.1452 4.53023C33.8455 2.18432 38.9143 0.610413 44.0663 0C39.0985 1.49013 34.3447 3.465 29.9296 6.01437C29.371 6.31958 28.8481 6.69061 28.3073 7.01975L26.6851 8.02514C25.6274 8.7313 24.6171 9.5033 23.5832 10.2394C22.5849 11.0233 21.6104 11.8372 20.6239 12.6332C19.6732 13.477 18.77 14.3686 17.8371 15.2304C16.9398 16.1281 16.0841 17.0676 15.2046 17.9833C14.3727 18.9467 13.5883 19.9461 12.7623 20.9156L10.4983 23.9916C9.81493 25.0688 9.13158 26.146 8.43039 27.2172C5.78013 31.6098 3.71224 36.3555 2.13159 41.3285Z" fill="url(#paint5_linear_18_196)"/>
<path d="M65.8268 81.3524C65.7436 81.3524 65.6664 81.3524 65.5832 81.3524C61.5543 81.2866 57.7988 79.6469 54.994 76.7384C52.1952 73.824 50.6859 69.988 50.7453 65.9365C50.8107 61.8791 52.4329 58.0969 55.3268 55.2722C61.2929 49.4494 70.8599 49.599 76.6417 55.6074C79.4465 58.5218 80.9559 62.3578 80.8905 66.4093C80.8251 70.4667 79.2028 74.2489 76.3089 77.0735C73.4804 79.8384 69.7666 81.3524 65.8268 81.3524ZM65.8209 55.7809C63.2301 55.7809 60.6392 56.7504 58.6426 58.7073C54.5543 62.6929 54.4533 69.2878 58.4108 73.4051C60.3302 75.3979 62.9032 76.523 65.6604 76.5649C68.4117 76.6128 71.0263 75.5655 73.0051 73.6385C74.9839 71.7055 76.101 69.1142 76.1426 66.3375C76.1842 63.5607 75.1562 60.9335 73.2368 58.9407C71.2105 56.8342 68.5187 55.7809 65.8209 55.7809Z" fill="#0158DB"/>
<path d="M65.8268 81.3524C65.7436 81.3524 65.6664 81.3524 65.5832 81.3524C61.5543 81.2866 57.7988 79.6469 54.994 76.7384C52.1952 73.824 50.6859 69.988 50.7453 65.9365C50.8107 61.8791 52.4329 58.0969 55.3268 55.2722C61.2929 49.4494 70.8599 49.599 76.6417 55.6074C79.4465 58.5218 80.9559 62.3578 80.8905 66.4093C80.8251 70.4667 79.2028 74.2489 76.3089 77.0735C73.4804 79.8384 69.7666 81.3524 65.8268 81.3524ZM65.8209 55.7809C63.2301 55.7809 60.6392 56.7504 58.6426 58.7073C54.5543 62.6929 54.4533 69.2878 58.4108 73.4051C60.3302 75.3979 62.9032 76.523 65.6604 76.5649C68.4117 76.6128 71.0263 75.5655 73.0051 73.6385C74.9839 71.7055 76.101 69.1142 76.1426 66.3375C76.1842 63.5607 75.1562 60.9335 73.2368 58.9407C71.2105 56.8342 68.5187 55.7809 65.8209 55.7809Z" fill="url(#paint6_linear_18_196)"/>
<path d="M66.2486 30.5086C62.2197 30.5086 58.4345 28.9287 55.5881 26.0622C49.7112 20.1436 49.7112 10.5146 55.5881 4.58999C58.4345 1.72344 62.2197 0.143555 66.2486 0.143555C70.2774 0.143555 74.0626 1.72344 76.909 4.58999C79.7553 7.45654 81.3241 11.2686 81.3241 15.3261C81.3241 19.3835 79.7553 23.1956 76.909 26.0622C74.0567 28.9287 70.2715 30.5086 66.2486 30.5086ZM66.2486 4.93111C63.4914 4.93111 60.9005 6.01429 58.9515 7.97719C54.9285 12.0287 54.9285 18.6235 58.9515 22.675C60.9005 24.6379 63.4914 25.721 66.2486 25.721C69.0058 25.721 71.5966 24.6379 73.5457 22.675C75.4948 20.7121 76.5703 18.1029 76.5703 15.3261C76.5703 12.5493 75.4948 9.94008 73.5457 7.97719C71.5966 6.01429 69.0058 4.93111 66.2486 4.93111Z" fill="#0158DB"/>
<path d="M66.2486 30.5086C62.2197 30.5086 58.4345 28.9287 55.5881 26.0622C49.7112 20.1436 49.7112 10.5146 55.5881 4.58999C58.4345 1.72344 62.2197 0.143555 66.2486 0.143555C70.2774 0.143555 74.0626 1.72344 76.909 4.58999C79.7553 7.45654 81.3241 11.2686 81.3241 15.3261C81.3241 19.3835 79.7553 23.1956 76.909 26.0622C74.0567 28.9287 70.2715 30.5086 66.2486 30.5086ZM66.2486 4.93111C63.4914 4.93111 60.9005 6.01429 58.9515 7.97719C54.9285 12.0287 54.9285 18.6235 58.9515 22.675C60.9005 24.6379 63.4914 25.721 66.2486 25.721C69.0058 25.721 71.5966 24.6379 73.5457 22.675C75.4948 20.7121 76.5703 18.1029 76.5703 15.3261C76.5703 12.5493 75.4948 9.94008 73.5457 7.97719C71.5966 6.01429 69.0058 4.93111 66.2486 4.93111Z" fill="url(#paint7_linear_18_196)"/>
<path d="M63.819 27.3086L63.6492 53.6342L68.403 53.665L68.5728 27.3395L63.819 27.3086Z" fill="#0158DB"/>
<path d="M63.819 27.3086L63.6492 53.6342L68.403 53.665L68.5728 27.3395L63.819 27.3086Z" fill="url(#paint8_linear_18_196)"/>
<path d="M15.0737 80.6045C14.9905 80.6045 14.9132 80.6045 14.83 80.6045C10.8012 80.5387 7.04569 78.8989 4.24094 75.9905C-1.5409 69.9761 -1.39238 60.3472 4.57367 54.5243C10.5397 48.7014 20.1068 48.8511 25.8886 54.8594C31.6704 60.8738 31.5219 70.5028 25.5499 76.3256C22.7273 79.0904 19.0075 80.6045 15.0737 80.6045ZM15.0677 55.033C12.4769 55.033 9.88611 56.0025 7.8895 57.9594C3.80122 61.951 3.70019 68.5399 7.65774 72.6572C9.5771 74.65 12.1501 75.7751 14.9073 75.817C17.6704 75.8648 20.2732 74.8175 22.2519 72.8906C26.3402 68.9049 26.4412 62.3101 22.4837 58.1928C20.4574 56.0922 17.7655 55.033 15.0677 55.033Z" fill="#0158DB"/>
<path d="M15.0737 80.6045C14.9905 80.6045 14.9132 80.6045 14.83 80.6045C10.8012 80.5387 7.04569 78.8989 4.24094 75.9905C-1.5409 69.9761 -1.39238 60.3472 4.57367 54.5243C10.5397 48.7014 20.1068 48.8511 25.8886 54.8594C31.6704 60.8738 31.5219 70.5028 25.5499 76.3256C22.7273 79.0904 19.0075 80.6045 15.0737 80.6045ZM15.0677 55.033C12.4769 55.033 9.88611 56.0025 7.8895 57.9594C3.80122 61.951 3.70019 68.5399 7.65774 72.6572C9.5771 74.65 12.1501 75.7751 14.9073 75.817C17.6704 75.8648 20.2732 74.8175 22.2519 72.8906C26.3402 68.9049 26.4412 62.3101 22.4837 58.1928C20.4574 56.0922 17.7655 55.033 15.0677 55.033Z" fill="url(#paint9_linear_18_196)"/>
<path d="M27.0356 62.8982L26.9915 67.6858L53.3633 67.9309L53.4075 63.1434L27.0356 62.8982Z" fill="#0158DB"/>
<path d="M27.0356 62.8982L26.9915 67.6858L53.3633 67.9309L53.4075 63.1434L27.0356 62.8982Z" fill="url(#paint10_linear_18_196)"/>
<path d="M114.892 80.6044C112.824 80.6044 110.721 80.1735 108.718 79.2638C101.142 75.8228 97.7547 66.8162 101.171 59.1801C104.588 51.5499 113.537 48.1448 121.114 51.5798C124.786 53.2495 127.591 56.2537 129.017 60.0478C130.443 63.8419 130.312 67.9652 128.66 71.6636C126.141 77.277 120.638 80.6044 114.892 80.6044ZM114.928 55.0269C110.988 55.0269 107.227 57.3069 105.503 61.149C103.162 66.3734 105.48 72.5433 110.667 74.8952C115.855 77.2531 121.981 74.9191 124.317 69.6947C126.658 64.4703 124.34 58.3004 119.153 55.9485C117.78 55.3261 116.342 55.0269 114.928 55.0269Z" fill="#0158DB"/>
<path d="M114.892 80.6044C112.824 80.6044 110.721 80.1735 108.718 79.2638C101.142 75.8228 97.7547 66.8162 101.171 59.1801C104.588 51.5499 113.537 48.1448 121.114 51.5798C124.786 53.2495 127.591 56.2537 129.017 60.0478C130.443 63.8419 130.312 67.9652 128.66 71.6636C126.141 77.277 120.638 80.6044 114.892 80.6044ZM114.928 55.0269C110.988 55.0269 107.227 57.3069 105.503 61.149C103.162 66.3734 105.48 72.5433 110.667 74.8952C115.855 77.2531 121.981 74.9191 124.317 69.6947C126.658 64.4703 124.34 58.3004 119.153 55.9485C117.78 55.3261 116.342 55.0269 114.928 55.0269Z" fill="url(#paint11_linear_18_196)"/>
<path d="M79.5622 62.4978L79.4873 67.2849L102.933 67.6544L103.008 62.8673L79.5622 62.4978Z" fill="#0158DB"/>
<path d="M79.5622 62.4978L79.4873 67.2849L102.933 67.6544L103.008 62.8673L79.5622 62.4978Z" fill="url(#paint12_linear_18_196)"/>
<path d="M66.2486 130C62.2197 130 58.4345 128.42 55.5881 125.553C49.7112 119.635 49.7112 110 55.5881 104.081C58.4345 101.215 62.2197 99.6349 66.2486 99.6349C70.2774 99.6349 74.0626 101.215 76.909 104.081C79.7553 106.948 81.3241 110.76 81.3241 114.817C81.3241 118.875 79.7553 122.687 76.909 125.553C74.0567 128.42 70.2715 130 66.2486 130ZM66.2486 104.422C63.4914 104.422 60.9005 105.506 58.9515 107.468C54.9285 111.52 54.9285 118.115 58.9515 122.166C60.9005 124.129 63.4914 125.212 66.2486 125.212C69.0058 125.212 71.5966 124.129 73.5457 122.166C75.4948 120.203 76.5703 117.594 76.5703 114.817C76.5703 112.041 75.4948 109.431 73.5457 107.468C71.5966 105.506 69.0058 104.422 66.2486 104.422Z" fill="#0158DB"/>
<path d="M66.2486 130C62.2197 130 58.4345 128.42 55.5881 125.553C49.7112 119.635 49.7112 110 55.5881 104.081C58.4345 101.215 62.2197 99.6349 66.2486 99.6349C70.2774 99.6349 74.0626 101.215 76.909 104.081C79.7553 106.948 81.3241 110.76 81.3241 114.817C81.3241 118.875 79.7553 122.687 76.909 125.553C74.0567 128.42 70.2715 130 66.2486 130ZM66.2486 104.422C63.4914 104.422 60.9005 105.506 58.9515 107.468C54.9285 111.52 54.9285 118.115 58.9515 122.166C60.9005 124.129 63.4914 125.212 66.2486 125.212C69.0058 125.212 71.5966 124.129 73.5457 122.166C75.4948 120.203 76.5703 117.594 76.5703 114.817C76.5703 112.041 75.4948 109.431 73.5457 107.468C71.5966 105.506 69.0058 104.422 66.2486 104.422Z" fill="url(#paint13_linear_18_196)"/>
<path d="M68.9108 78.9586H64.157V102.807H68.9108V78.9586Z" fill="#0158DB"/>
<path d="M68.9108 78.9586H64.157V102.807H68.9108V78.9586Z" fill="url(#paint14_linear_18_196)"/>
<defs>
<linearGradient id="paint0_linear_18_196" x1="82.7185" y1="76.8213" x2="108.477" y2="130.436" gradientUnits="userSpaceOnUse">
<stop offset="0.181437" stop-color="#FAFF01"/>
<stop offset="0.666313" stop-color="#FE007A"/>
<stop offset="1" stop-color="#FF4848"/>
</linearGradient>
<linearGradient id="paint1_linear_18_196" x1="70.654" y1="65.6249" x2="98.2073" y2="123.191" gradientUnits="userSpaceOnUse">
<stop offset="0.181437" stop-color="#FAFF01"/>
<stop offset="0.666313" stop-color="#FE007A"/>
<stop offset="1" stop-color="#FF4848"/>
</linearGradient>
<linearGradient id="paint2_linear_18_196" x1="2.27572" y1="65.4584" x2="29.4994" y2="124.801" gradientUnits="userSpaceOnUse">
<stop offset="0.181437" stop-color="#FAFF01"/>
<stop offset="0.666313" stop-color="#FE007A"/>
<stop offset="1" stop-color="#FF4848"/>
</linearGradient>
<linearGradient id="paint3_linear_18_196" x1="70.6297" y1="-1.98034" x2="98.8917" y2="56.2406" gradientUnits="userSpaceOnUse">
<stop offset="0.181437" stop-color="#FAFF01"/>
<stop offset="0.666313" stop-color="#FE007A"/>
<stop offset="1" stop-color="#FF4848"/>
</linearGradient>
<linearGradient id="paint4_linear_18_196" x1="1.98348" y1="-2.81106" x2="29.8535" y2="57.2803" gradientUnits="userSpaceOnUse">
<stop offset="0.181437" stop-color="#FAFF01"/>
<stop offset="0.666313" stop-color="#FE007A"/>
<stop offset="1" stop-color="#FF4848"/>
</linearGradient>
<linearGradient id="paint5_linear_18_196" x1="-5.18067" y1="-11.3096" x2="20.8386" y2="44.8996" gradientUnits="userSpaceOnUse">
<stop offset="0.181437" stop-color="#FAFF01"/>
<stop offset="0.666313" stop-color="#FE007A"/>
<stop offset="1" stop-color="#FF4848"/>
</linearGradient>
<linearGradient id="paint6_linear_18_196" x1="35.3747" y1="45.8762" x2="89.4274" y2="86.5039" gradientUnits="userSpaceOnUse">
<stop stop-color="#3BC3E1"/>
<stop offset="0.470268" stop-color="#1C32FF"/>
<stop offset="0.984375" stop-color="#FF6DCE"/>
</linearGradient>
<linearGradient id="paint7_linear_18_196" x1="35.8141" y1="-4.98376" x2="89.882" y2="35.6299" gradientUnits="userSpaceOnUse">
<stop stop-color="#3BC3E1"/>
<stop offset="0.470268" stop-color="#1C32FF"/>
<stop offset="0.984375" stop-color="#FF6DCE"/>
</linearGradient>
<linearGradient id="paint8_linear_18_196" x1="62.7599" y1="67.0489" x2="79.4627" y2="63.1766" gradientUnits="userSpaceOnUse">
<stop stop-color="#3BC3E1"/>
<stop offset="0.470268" stop-color="#1C32FF"/>
<stop offset="0.984375" stop-color="#FF6DCE"/>
</linearGradient>
<linearGradient id="paint9_linear_18_196" x1="-15.3588" y1="45.1283" x2="38.684" y2="85.7215" gradientUnits="userSpaceOnUse">
<stop stop-color="#3BC3E1"/>
<stop offset="0.470268" stop-color="#1C32FF"/>
<stop offset="0.984375" stop-color="#FF6DCE"/>
</linearGradient>
<linearGradient id="paint10_linear_18_196" x1="22.5159" y1="70.0849" x2="24.4494" y2="56.9181" gradientUnits="userSpaceOnUse">
<stop stop-color="#3BC3E1"/>
<stop offset="0.470268" stop-color="#1C32FF"/>
<stop offset="0.984375" stop-color="#FF6DCE"/>
</linearGradient>
<linearGradient id="paint11_linear_18_196" x1="84.465" y1="45.1144" x2="138.539" y2="85.7574" gradientUnits="userSpaceOnUse">
<stop stop-color="#3BC3E1"/>
<stop offset="0.470268" stop-color="#1C32FF"/>
<stop offset="0.984375" stop-color="#FF6DCE"/>
</linearGradient>
<linearGradient id="paint12_linear_18_196" x1="75.4902" y1="69.6628" x2="77.7235" y2="56.5769" gradientUnits="userSpaceOnUse">
<stop stop-color="#3BC3E1"/>
<stop offset="0.470268" stop-color="#1C32FF"/>
<stop offset="0.984375" stop-color="#FF6DCE"/>
</linearGradient>
<linearGradient id="paint13_linear_18_196" x1="35.8141" y1="94.5076" x2="89.882" y2="135.121" gradientUnits="userSpaceOnUse">
<stop stop-color="#3BC3E1"/>
<stop offset="0.470268" stop-color="#1C32FF"/>
<stop offset="0.984375" stop-color="#FF6DCE"/>
</linearGradient>
<linearGradient id="paint14_linear_18_196" x1="61.7336" y1="74.9317" x2="74.7749" y2="76.8988" gradientUnits="userSpaceOnUse">
<stop stop-color="#3BC3E1"/>
<stop offset="0.470268" stop-color="#1C32FF"/>
<stop offset="0.984375" stop-color="#FF6DCE"/>
</linearGradient>
</defs>
</svg>
