<svg width="130" height="130" viewBox="0 0 130 130" fill="none" xmlns="http://www.w3.org/2000/svg">
<path d="M0 0L41.4657 93.2177L68.3035 75.2594L86.3716 79.7686L90.1503 51.8959L109.229 32.4062L0 0ZM18.1632 14.6112L81.9154 49.2811L81.0896 68.9101L18.1632 14.6112Z" fill="url(#paint0_linear_18_520)"/>
<path d="M93.115 86.6323C96.2759 89.8221 99.2109 93.1935 102.075 96.6193C104.927 100.051 107.695 103.55 110.381 107.115C113.067 110.674 115.675 114.299 118.194 117.997C120.701 121.702 123.143 125.454 125.348 129.395C122.181 126.205 119.252 122.84 116.388 119.414C113.536 115.982 110.767 112.483 108.082 108.918C105.396 105.353 102.788 101.728 100.274 98.0356C97.7612 94.3193 95.3252 90.5666 93.115 86.6323Z" fill="#F56AA1"/>
<path d="M65.7961 87.2376C68.957 90.4274 71.8921 93.7987 74.7559 97.2246C77.6079 100.656 80.3766 104.155 83.0621 107.72C85.7477 111.279 88.356 114.905 90.8752 118.603C93.3825 122.307 95.8245 126.06 98.0288 130C94.8619 126.81 91.9328 123.445 89.069 120.019C86.2171 116.587 83.4483 113.089 80.7628 109.524C78.0772 105.959 75.4689 102.333 72.9497 98.6409C70.4484 94.9245 68.0064 91.1719 65.7961 87.2376Z" fill="#F56AA1"/>
<path d="M97.7673 51.9323C100.928 55.122 103.863 58.4934 106.727 61.9192C109.579 65.3511 112.348 68.8496 115.033 72.4146C117.719 75.9736 120.327 79.5992 122.846 83.2974C125.354 87.0016 127.796 90.7543 130 94.6946C126.833 91.5048 123.904 88.1395 121.04 84.7137C118.188 81.2818 115.42 77.7834 112.74 74.2183C110.054 70.6533 107.446 67.0277 104.927 63.3355C102.42 59.6192 99.9776 55.8665 97.7673 51.9323Z" fill="#F56AA1"/>
<defs>
<linearGradient id="paint0_linear_18_520" x1="-15.2934" y1="6.0769" x2="87.7525" y2="101.64" gradientUnits="userSpaceOnUse">
<stop stop-color="#3BC3E1"/>
<stop offset="0.348958" stop-color="#1C32FF"/>
<stop offset="0.984375" stop-color="#FF6DCE"/>
</linearGradient>
</defs>
</svg>
