<svg width="120" height="130" viewBox="0 0 120 130" fill="none" xmlns="http://www.w3.org/2000/svg">
<path d="M91.87 66.0034C89.5373 74.3528 85.8941 82.0445 81.0571 88.8703C75.6164 96.5285 68.6045 103.146 60.193 108.549C51.7884 103.14 44.7765 96.5285 39.3358 88.8703C34.492 82.0445 30.8557 74.3528 28.5229 66.0034C25.9295 56.721 25.5315 48.6401 25.5796 44.0291C33.3599 42.8008 49.0577 39.4181 60.1999 31.0486C71.3489 39.4181 87.033 42.8008 94.8202 44.0291C94.8545 48.6401 94.4634 56.721 91.87 66.0034Z" fill="#0158DB"/>
<path d="M113.311 29.3035C113.311 29.3035 77.8463 26.0953 60.1931 8.82593C42.5468 26.0953 7.07576 29.3035 7.07576 29.3035C7.07576 29.3035 -0.725135 94.0653 60.1931 130C121.111 94.072 113.311 29.3035 113.311 29.3035ZM60.1931 114.852C14.5061 87.9039 20.3585 39.3309 20.3585 39.3309C20.3585 39.3309 46.9652 36.9214 60.1931 23.9811C73.4347 36.9281 100.035 39.3309 100.035 39.3309C100.035 39.3309 105.88 87.9039 60.1931 114.852Z" fill="#0158DB"/>
<path d="M91.87 66.0034C89.5373 74.3528 85.8941 82.0445 81.0571 88.8703C75.6164 96.5285 68.6045 103.146 60.193 108.549C51.7884 103.14 44.7765 96.5285 39.3358 88.8703C34.492 82.0445 30.8557 74.3528 28.5229 66.0034C25.9295 56.721 25.5315 48.6401 25.5796 44.0291C33.3599 42.8008 49.0577 39.4181 60.1999 31.0486C71.3489 39.4181 87.033 42.8008 94.8202 44.0291C94.8545 48.6401 94.4634 56.721 91.87 66.0034Z" fill="#0158DB"/>
<path d="M113.311 29.3035C113.311 29.3035 77.8463 26.0953 60.1931 8.82593C42.5468 26.0953 7.07576 29.3035 7.07576 29.3035C7.07576 29.3035 -0.725135 94.0653 60.1931 130C121.111 94.072 113.311 29.3035 113.311 29.3035ZM60.1931 114.852C14.5061 87.9039 20.3585 39.3309 20.3585 39.3309C20.3585 39.3309 46.9652 36.9214 60.1931 23.9811C73.4347 36.9281 100.035 39.3309 100.035 39.3309C100.035 39.3309 105.88 87.9039 60.1931 114.852Z" fill="#0158DB"/>
<path d="M113.311 29.3035C113.311 29.3035 77.8463 26.0953 60.1931 8.82593C42.5468 26.0953 7.07576 29.3035 7.07576 29.3035C7.07576 29.3035 -0.725135 94.0653 60.1931 130C121.111 94.072 113.311 29.3035 113.311 29.3035ZM60.1931 114.852C14.5061 87.9039 20.3585 39.3309 20.3585 39.3309C20.3585 39.3309 46.9652 36.9214 60.1931 23.9811C73.4347 36.9281 100.035 39.3309 100.035 39.3309C100.035 39.3309 105.88 87.9039 60.1931 114.852Z" fill="url(#paint0_linear_18_550)"/>
<path d="M120 17.3566C115.657 18.0076 111.231 17.8935 106.861 17.4304C102.491 16.9337 98.1477 16.0142 93.9625 14.5913C92.9128 14.2491 91.8836 13.8396 90.8545 13.4503C89.839 13.0141 88.8168 12.5979 87.8219 12.108C85.8254 11.1616 83.8906 10.0877 82.0587 8.8662C78.3813 6.45668 75.0743 3.47669 72.5015 0C75.98 2.59745 79.5134 4.93984 83.2869 6.86611C84.2131 7.36949 85.1805 7.80578 86.1204 8.27561C87.0947 8.69173 88.0346 9.16153 89.0157 9.55081C90.9574 10.3764 92.9333 11.1214 94.9436 11.7858C98.9504 13.1483 103.067 14.2289 107.245 15.135C111.437 16.0478 115.671 16.7727 120 17.3566Z" fill="#F56AA1"/>
<path d="M0.90788 61.8085C1.0451 64.6274 1.33326 67.4061 1.77236 70.1512C2.19774 72.8963 2.73975 75.6011 3.4327 78.2657C4.7843 83.6016 6.73281 88.7427 9.22333 93.6021L10.1839 95.4142C10.5132 96.0116 10.8768 96.5888 11.2198 97.1794C11.5492 97.7768 11.9265 98.3473 12.297 98.9245C12.6744 99.495 13.0243 100.086 13.4291 100.636C14.9591 102.911 16.7018 105.039 18.4925 107.153C22.1699 111.288 26.3482 115.033 30.8558 118.577C25.5592 116.301 20.6811 113.033 16.4204 109.079C15.405 108.046 14.321 107.059 13.3879 105.945C12.9077 105.395 12.4137 104.864 11.954 104.294L10.6093 102.576C8.8803 100.24 7.30228 97.7835 5.97812 95.1995C3.33666 90.0381 1.51163 84.4808 0.640294 78.8094C0.201194 75.977 -0.025212 73.1178 0.00223176 70.2653C0.0502583 67.4195 0.24923 64.567 0.90788 61.8085Z" fill="#F56AA1"/>
<path d="M91.87 66.0034C89.5373 74.3528 85.8941 82.0445 81.0571 88.8703C75.6164 96.5285 68.6045 103.146 60.193 108.549C51.7884 103.14 44.7765 96.5285 39.3358 88.8703C34.492 82.0445 30.8557 74.3528 28.5229 66.0034C25.9295 56.721 25.5315 48.6401 25.5796 44.0291C33.3599 42.8008 49.0577 39.4181 60.1999 31.0486C71.3489 39.4181 87.033 42.8008 94.8202 44.0291C94.8545 48.6401 94.4634 56.721 91.87 66.0034Z" fill="#F7528E"/>
<path d="M91.87 66.0034C89.5373 74.3528 85.8941 82.0445 81.0571 88.8703C75.6164 96.5285 68.6045 103.146 60.193 108.549C51.7884 103.14 44.7765 96.5285 39.3358 88.8703C34.492 82.0445 30.8557 74.3528 28.5229 66.0034C25.9295 56.721 25.5315 48.6401 25.5796 44.0291C33.3599 42.8008 49.0577 39.4181 60.1999 31.0486C71.3489 39.4181 87.033 42.8008 94.8202 44.0291C94.8545 48.6401 94.4634 56.721 91.87 66.0034Z" fill="url(#paint1_linear_18_550)"/>
<defs>
<linearGradient id="paint0_linear_18_550" x1="3.25609" y1="39.1645" x2="67.9789" y2="115.518" gradientUnits="userSpaceOnUse">
<stop stop-color="#3BC3E1"/>
<stop offset="0.491416" stop-color="#1C32FF"/>
<stop offset="0.984375" stop-color="#FF6DCE"/>
</linearGradient>
<linearGradient id="paint1_linear_18_550" x1="-6.64623" y1="18.4909" x2="88.9596" y2="95.505" gradientUnits="userSpaceOnUse">
<stop offset="0.181437" stop-color="#FAFF01"/>
<stop offset="0.644519" stop-color="#FE007A"/>
<stop offset="1" stop-color="#FF4848"/>
</linearGradient>
</defs>
</svg>
