<svg width="119" height="119" viewBox="0 0 119 119" fill="none" xmlns="http://www.w3.org/2000/svg">
<circle cx="59.5" cy="59.5" r="59.5" fill="white"/>
<path d="M42.0001 47C41.6071 47 41.2342 47.0827 40.8907 47.2187L57.8593 62.0462C58.5927 62.6869 59.374 62.6876 60.1091 62.0462L77.109 47.2187C76.7658 47.0823 76.3926 47 75.9995 47H41.9998H42.0001ZM39.0314 49.5781C39.0122 49.7145 39 49.8578 39 49.9998V69.9996C39 71.6615 40.3378 72.9997 42.0002 72.9997H75.9999C77.6617 72.9997 79 71.6619 79 69.9996V49.9998C79 49.8578 78.9878 49.7145 78.9686 49.5778L62.0777 64.3124C60.3154 65.8495 57.6526 65.8519 55.8902 64.3124L39.0314 49.5778L39.0314 49.5781Z" fill="#4C5A73"/>
</svg>
