<svg width="119" height="119" viewBox="0 0 119 119" fill="none" xmlns="http://www.w3.org/2000/svg">
<circle cx="59.5" cy="59.5" r="59.5" fill="white"/>
<path fill-rule="evenodd" clip-rule="evenodd" d="M70.3892 65.5893C72.841 66.9518 75.2942 68.3145 77.7459 69.6771C78.8011 70.263 79.2641 71.5063 78.8486 72.6403C76.7392 78.403 70.5612 81.4448 64.7482 79.3233C52.845 74.9786 44.0219 66.155 39.6767 54.2518C37.555 48.4389 40.597 42.2608 46.3597 40.1514C47.4937 39.7359 48.737 40.1988 49.3244 41.2542C50.6855 43.7059 52.0483 46.1592 53.4107 48.6108C54.0494 49.761 53.8993 51.1262 53.0251 52.1084C51.8803 53.3967 50.7357 54.6846 49.5909 55.9715C52.0346 61.9223 57.0775 66.9654 63.0284 69.4091C64.3153 68.2642 65.6033 67.1196 66.8915 65.9748C67.8751 65.1006 69.2392 64.9505 70.3891 65.5892L70.3892 65.5893Z" fill="#4C5A73"/>
</svg>
