<svg width="120" height="72" viewBox="0 0 120 72" fill="none" xmlns="http://www.w3.org/2000/svg">
<path d="M23.7868 31.4231C22.8715 31.4231 22.1295 30.6459 22.1295 29.6869C22.1295 28.7281 22.8715 27.9507 23.7868 27.9507H25.0432C25.9586 27.9507 26.7005 28.7281 26.7005 29.6869C26.7005 30.6459 25.9586 31.4231 25.0432 31.4231H23.7868ZM22.2595 44.6093V32.7168H26.5705V44.6093H22.2595Z" fill="white"/>
<path d="M38.6855 32.4444C40.4619 32.4444 41.805 32.9513 42.7149 33.9651C43.6248 34.9788 44.0797 36.4465 44.0797 38.368V44.6093H39.7687V39.7524C39.7687 38.5723 39.5521 37.6796 39.1188 37.0744C38.7 36.4692 37.9923 36.1665 36.9958 36.1665C35.8838 36.1665 35.0317 36.5146 34.4395 37.2105C33.8618 37.9066 33.573 38.8522 33.573 40.0475V44.6093H29.262V32.7168H33.2697V35.3268C34.3528 33.4053 36.1582 32.4444 38.6855 32.4444Z" fill="white"/>
<path d="M56.8056 32.7168H61.4199L56.3073 44.6093H49.96L44.9341 32.7168H49.6567L53.1878 42.1355L56.8056 32.7168Z" fill="white"/>
<path d="M64.2305 43.2476C62.7574 42.1431 62.0209 40.6149 62.0209 38.6631C62.0209 36.7112 62.7574 35.1906 64.2305 34.1012C65.7036 32.9967 67.675 32.4444 70.1446 32.4444C72.6143 32.4444 74.5856 32.9967 76.0585 34.1012C77.5316 35.1906 78.2682 36.7112 78.2682 38.6631C78.2682 40.6149 77.5316 42.1431 76.0585 43.2476C74.5856 44.337 72.6143 44.8817 70.1446 44.8817C67.675 44.8817 65.7036 44.337 64.2305 43.2476ZM67.3067 36.6658C66.6279 37.2105 66.2886 37.8763 66.2886 38.6631C66.2886 39.4499 66.6279 40.1156 67.3067 40.6603C67.9855 41.205 68.9315 41.4773 70.1446 41.4773C71.3578 41.4773 72.3037 41.205 72.9825 40.6603C73.6613 40.1156 74.0007 39.4499 74.0007 38.6631C74.0007 37.8763 73.6613 37.2105 72.9825 36.6658C72.3037 36.1211 71.3578 35.8488 70.1446 35.8488C68.9315 35.8488 67.9855 36.1211 67.3067 36.6658Z" fill="white"/>
<path d="M82.007 31.4231C81.0919 31.4231 80.3501 30.6459 80.3501 29.6869C80.3501 28.7281 81.0919 27.9507 82.007 27.9507H83.2634C84.1785 27.9507 84.9211 28.7281 84.9211 29.6869C84.9211 30.6459 84.1785 31.4231 83.2634 31.4231H82.007ZM80.4801 44.6093V32.7168H84.7911V44.6093H80.4801Z" fill="white"/>
<path d="M102.539 40.1156C102.307 41.6135 101.505 42.7861 100.134 43.6334C98.7617 44.4656 97.0428 44.8817 94.9781 44.8817C92.4935 44.8817 90.5438 44.3446 89.129 43.2703C87.7134 42.1809 87.006 40.6452 87.006 38.6631C87.006 36.681 87.7059 35.1528 89.1073 34.0785C90.5222 32.9891 92.4435 32.4444 94.8698 32.4444C96.877 32.4444 98.5667 32.853 99.939 33.67C101.311 34.4871 102.105 35.6218 102.322 37.0744L98.1409 37.324C97.8952 36.8701 97.4836 36.5146 96.9061 36.2573C96.3279 35.985 95.6497 35.8488 94.8698 35.8488C93.7717 35.8488 92.8984 36.106 92.2485 36.6204C91.5986 37.1349 91.2737 37.8158 91.2737 38.6631C91.2737 39.5104 91.6053 40.1913 92.2702 40.7057C92.9343 41.2201 93.8367 41.4773 94.9781 41.4773C95.8446 41.4773 96.5595 41.3336 97.1228 41.0461C97.7002 40.7586 98.1043 40.3728 98.3359 39.8886L102.539 40.1156Z" fill="white"/>
<path d="M120 39.5709V40.0021H108.54C109.032 41.2277 110.338 41.8404 112.461 41.8404C113.891 41.8404 114.924 41.5757 115.559 41.0461L119.805 41.2277C119.372 42.4078 118.527 43.3157 117.27 43.9511C116.029 44.5715 114.426 44.8817 112.461 44.8817C109.877 44.8817 107.833 44.3748 106.33 43.3611C104.843 42.3322 104.099 40.7662 104.099 38.6631C104.099 36.5751 104.829 35.0166 106.287 33.9877C107.76 32.9589 109.753 32.4444 112.266 32.4444C114.837 32.4444 116.765 33.0118 118.05 34.1466C119.35 35.2814 120 37.0895 120 39.5709ZM112.266 35.4857C110.245 35.4857 109.003 36.0984 108.54 37.324H115.754C115.537 36.0984 114.375 35.4857 112.266 35.4857Z" fill="white"/>
<path fill-rule="evenodd" clip-rule="evenodd" d="M24.4793 11.4885C28.783 9.5839 33.5048 8.95985 38.1253 9.68494C42.7457 10.41 47.0857 12.4563 50.6678 15.5985C53.3926 17.9887 55.5985 20.9426 57.1556 24.2609H66.8468C64.8122 18.0811 61.209 12.5967 56.4226 8.39802C51.5762 4.14674 45.7044 1.37831 39.4533 0.397263C33.2021 -0.583783 26.8138 0.260569 20.991 2.83743C15.1684 5.41429 10.1369 9.62382 6.4502 15.0029C2.76351 20.3819 0.564448 26.7222 0.0949391 33.326C-0.37457 39.9298 0.903668 46.5413 3.78903 52.4333C6.6744 58.3252 11.0551 63.2691 16.4491 66.7213C21.8432 70.1735 28.0416 72 34.3626 72V62.6087C29.6906 62.6087 25.1092 61.2586 21.1222 58.7071C17.1353 56.1555 13.8974 52.5012 11.7648 48.1463C9.63205 43.7914 8.6873 38.9047 9.03429 34.0235C9.38135 29.1425 11.0068 24.4562 13.7317 20.4804C16.4566 16.5046 20.1755 13.3932 24.4793 11.4885Z" fill="white"/>
</svg>
